# Blender v2.75 (sub 0) OBJ File: '903-Crates.blend'
# www.blender.org
o Cube.033_Cube
v -2.000000 -2.000000 2.000000
v -1.600000 -1.600000 -2.000000
v -2.000000 2.000000 2.000000
v -1.600000 2.000000 1.600000
v -1.600000 2.000000 -1.600000
v 1.600000 2.000000 -1.600000
v 1.600000 2.000000 1.600000
v 2.000000 2.000000 2.000000
v 1.600000 -2.000000 1.600000
v 1.600000 -2.000000 -1.600000
v -2.000000 2.000000 -2.000000
v -1.600000 -2.000000 -1.600000
v -1.600000 -2.000000 1.600000
v 1.600000 -1.600000 2.000000
v -1.600000 -1.600000 2.000000
v 2.000000 -2.000000 -2.000000
v -1.600000 1.600000 2.000000
v 2.000000 2.000000 -2.000000
v 1.600000 1.600000 2.000000
v 2.000000 -1.600000 -1.600000
v 2.000000 -1.600000 1.600000
v 2.000000 1.600000 1.600000
v 2.000000 1.600000 -1.600000
v 1.600000 -1.600000 -2.000000
v 1.600000 1.600000 -2.000000
v -2.000000 -2.000000 -2.000000
v -1.600000 1.600000 -2.000000
v 2.000000 -2.000000 2.000000
v -2.000000 -1.600000 1.600000
v -2.000000 -1.600000 -1.600000
v -2.000000 1.600000 -1.600000
v -2.000000 1.600000 1.600000
v 1.600000 -1.280000 2.000000
v -1.280000 1.600000 2.000000
v 1.280000 -1.600000 2.000000
v -1.600000 1.280000 2.000000
v 1.280000 2.000000 1.600000
v -1.600000 2.000000 -1.280000
v -1.280000 2.000000 -1.600000
v 1.600000 2.000000 1.280000
v 2.000000 -1.280000 -1.600000
v 2.000000 1.600000 1.280000
v 2.000000 -1.600000 -1.280000
v 2.000000 1.280000 1.600000
v 1.280000 1.600000 -2.000000
v -1.600000 -1.280000 -2.000000
v 1.600000 1.280000 -2.000000
v -1.280000 -1.600000 -2.000000
v -2.000000 -1.600000 1.280000
v -2.000000 1.280000 -1.600000
v -2.000000 -1.280000 1.600000
v -2.000000 1.600000 -1.280000
v 1.280000 -2.000000 -1.600000
v -1.600000 -2.000000 1.280000
v -1.280000 -2.000000 1.600000
v 1.600000 -2.000000 -1.280000
v 1.280000 1.800000 1.600000
v -1.600000 1.800000 1.600000
v -1.280000 1.800000 -1.600000
v 1.600000 1.800000 -1.600000
v -1.280000 -1.800000 1.600000
v 1.600000 -1.800000 1.600000
v 1.280000 -1.800000 -1.600000
v -1.600000 -1.800000 -1.600000
v 1.280000 -1.600000 1.800000
v -1.600000 -1.600000 1.800000
v -1.280000 1.600000 1.800000
v 1.600000 1.600000 1.800000
v 1.800000 -1.600000 -1.280000
v 1.800000 -1.600000 1.600000
v 1.800000 1.600000 1.280000
v 1.800000 1.600000 -1.600000
v 1.280000 1.600000 -1.800000
v -1.600000 1.600000 -1.800000
v -1.800000 -1.600000 1.280000
v -1.800000 -1.600000 -1.600000
v -1.800000 1.600000 -1.280000
v -1.800000 1.600000 1.600000
v 1.600000 -1.280000 1.800000
v -1.600000 1.280000 1.800000
v -1.600000 1.800000 -1.280000
v 1.600000 1.800000 1.280000
v 1.800000 -1.280000 -1.600000
v 1.800000 1.280000 1.600000
v -1.280000 -1.600000 -1.800000
v 1.600000 -1.600000 -1.800000
v -1.600000 -1.280000 -1.800000
v 1.600000 1.280000 -1.800000
v -1.800000 1.280000 -1.600000
v -1.800000 -1.280000 1.600000
v -1.600000 -1.800000 1.280000
v 1.600000 -1.800000 -1.280000
vt 0.002370 0.534346
vt 0.026072 0.560411
vt 0.026072 0.581264
vt 0.002370 0.795002
vt 0.026072 0.768937
vt 0.196724 0.768937
vt 0.239386 0.795002
vt 0.215685 0.768937
vt 0.215685 0.748084
vt 0.239386 0.534346
vt 0.215685 0.560411
vt 0.045033 0.560411
vt 0.919414 0.731984
vt 0.931265 0.731984
vt 0.931265 0.919657
vt 0.722900 0.002607
vt 0.699198 0.028672
vt 0.680237 0.028672
vt 0.485883 0.002607
vt 0.509585 0.028672
vt 0.509585 0.216345
vt 0.485883 0.263263
vt 0.509585 0.237197
vt 0.528546 0.237197
vt 0.722900 0.263263
vt 0.699198 0.237197
vt 0.699198 0.049525
vt 0.957127 0.456149
vt 0.945276 0.456149
vt 0.945276 0.268476
vt 0.244127 0.002607
vt 0.267828 0.028672
vt 0.267828 0.216345
vt 0.244127 0.263263
vt 0.267828 0.237197
vt 0.286790 0.237197
vt 0.481143 0.263263
vt 0.457441 0.237197
vt 0.457441 0.049525
vt 0.481143 0.002607
vt 0.457441 0.028672
vt 0.438480 0.028672
vt 0.836458 0.731984
vt 0.848309 0.731984
vt 0.848309 0.919657
vt 0.002370 0.263263
vt 0.026072 0.237197
vt 0.196724 0.237197
vt 0.239386 0.263263
vt 0.215685 0.237197
vt 0.215685 0.216345
vt 0.239386 0.002607
vt 0.215685 0.028672
vt 0.045033 0.028672
vt 0.002370 0.002607
vt 0.026072 0.028672
vt 0.026072 0.049525
vt 0.952597 0.731984
vt 0.964447 0.731984
vt 0.964447 0.919657
vt 0.239386 0.268476
vt 0.215685 0.294542
vt 0.045033 0.294542
vt 0.002370 0.268476
vt 0.026072 0.294542
vt 0.026072 0.315394
vt 0.244127 0.529133
vt 0.267828 0.503067
vt 0.438480 0.503067
vt 0.481143 0.529133
vt 0.457441 0.503067
vt 0.457441 0.482214
vt 0.481143 0.268476
vt 0.457441 0.294542
vt 0.286790 0.294542
vt 0.244127 0.268476
vt 0.267828 0.294542
vt 0.267828 0.315394
vt 0.914674 0.919657
vt 0.902823 0.919657
vt 0.902823 0.731984
vt 0.978668 0.539099
vt 0.990519 0.539099
vt 0.990519 0.726771
vt 0.402719 0.534346
vt 0.414569 0.534346
vt 0.414569 0.722018
vt 0.948065 0.190279
vt 0.936214 0.190279
vt 0.936214 0.002607
vt 0.002370 0.529133
vt 0.026072 0.503067
vt 0.196724 0.503067
vt 0.239386 0.529133
vt 0.215685 0.503067
vt 0.215685 0.482214
vt 0.936005 0.731984
vt 0.947856 0.731984
vt 0.947856 0.919657
vt 0.990310 0.456149
vt 0.978459 0.456149
vt 0.978459 0.268476
vt 0.210945 0.800215
vt 0.222795 0.800215
vt 0.222795 0.987888
vt 0.869641 0.731984
vt 0.881492 0.731984
vt 0.881492 0.919657
vt 0.731962 0.268476
vt 0.731962 0.533885
vt 0.611293 0.401181
vt 0.606552 0.804508
vt 0.485883 0.671803
vt 0.606552 0.539099
vt 0.736702 0.456149
vt 0.907354 0.268476
vt 0.907354 0.456149
vt 0.781945 0.726771
vt 0.611293 0.539099
vt 0.781944 0.539099
vt 0.727640 0.190279
vt 0.898292 0.002607
vt 0.898292 0.190279
vt 0.173022 0.987888
vt 0.002370 0.987888
vt 0.173022 0.800215
vt 0.786685 0.539099
vt 0.957337 0.539099
vt 0.957337 0.726771
vt 0.606552 0.997393
vt 0.435901 0.997393
vt 0.606552 0.809721
vt 0.606552 0.268476
vt 0.606552 0.533885
vt 0.485883 0.401181
vt 0.414779 0.992641
vt 0.244127 0.992641
vt 0.414779 0.804968
vt 0.781944 0.919657
vt 0.611293 0.919657
vt 0.781944 0.731984
vt 0.364796 0.534346
vt 0.364796 0.799755
vt 0.244127 0.667050
vt 0.969397 0.002607
vt 0.981247 0.002607
vt 0.981247 0.190279
vt 0.206204 0.987888
vt 0.194353 0.987888
vt 0.194353 0.800215
vt 0.928685 0.268476
vt 0.940536 0.268476
vt 0.940536 0.456149
vt 0.969188 0.731984
vt 0.981039 0.731984
vt 0.981039 0.919657
vt 0.898083 0.919657
vt 0.886232 0.919657
vt 0.886232 0.731984
vt 0.227536 0.804968
vt 0.239386 0.804968
vt 0.239386 0.992641
vt 0.923945 0.456149
vt 0.912094 0.456149
vt 0.912094 0.268476
vt 0.919623 0.002607
vt 0.931474 0.002607
vt 0.931474 0.190279
vt 0.952806 0.002607
vt 0.964656 0.002607
vt 0.964656 0.190279
vt 0.903032 0.002607
vt 0.914883 0.002607
vt 0.914883 0.190279
vt 0.177762 0.800215
vt 0.189613 0.800215
vt 0.189613 0.987888
vt 0.369536 0.534346
vt 0.381387 0.534346
vt 0.381387 0.722018
vt 0.815127 0.919657
vt 0.803276 0.919657
vt 0.803276 0.731984
vt 0.961868 0.268476
vt 0.973718 0.268476
vt 0.973718 0.456149
vt 0.447752 0.722018
vt 0.435901 0.722018
vt 0.435901 0.534346
vt 0.464343 0.722018
vt 0.452492 0.722018
vt 0.452492 0.534346
vt 0.973928 0.726771
vt 0.962077 0.726771
vt 0.962077 0.539099
vt 0.985779 0.731984
vt 0.997630 0.731984
vt 0.997630 0.919657
vt 0.853050 0.731984
vt 0.864900 0.731984
vt 0.864900 0.919657
vt 0.819867 0.731984
vt 0.831718 0.731984
vt 0.831718 0.919657
vt 0.798536 0.919657
vt 0.786685 0.919657
vt 0.786685 0.731984
vt 0.431161 0.722018
vt 0.419310 0.722018
vt 0.419310 0.534346
vt 0.386127 0.534346
vt 0.397978 0.534346
vt 0.397978 0.722018
vt 0.469083 0.534346
vt 0.480934 0.534346
vt 0.480934 0.722018
vt 0.919414 0.919657
vt 0.957127 0.268476
vt 0.836458 0.919657
vt 0.952597 0.919657
vt 0.914674 0.731984
vt 0.978668 0.726771
vt 0.402719 0.722018
vt 0.948065 0.002607
vt 0.936005 0.919657
vt 0.990310 0.268476
vt 0.210945 0.987888
vt 0.869641 0.919657
vt 0.969397 0.190279
vt 0.206204 0.800215
vt 0.928685 0.456149
vt 0.969188 0.919657
vt 0.898083 0.731984
vt 0.227536 0.992641
vt 0.923945 0.268476
vt 0.919623 0.190279
vt 0.952806 0.190279
vt 0.903032 0.190279
vt 0.177762 0.987888
vt 0.369536 0.722018
vt 0.815127 0.731984
vt 0.961868 0.456149
vt 0.447752 0.534346
vt 0.464343 0.534346
vt 0.973928 0.539099
vt 0.985779 0.919657
vt 0.853050 0.919657
vt 0.819867 0.919657
vt 0.798536 0.731984
vt 0.431161 0.534346
vt 0.386127 0.722018
vt 0.469083 0.722018
vn 0.000000 1.000000 0.000000
vn 0.707100 0.707100 0.000000
vn 0.000000 -1.000000 0.000000
vn 0.000000 0.000000 1.000000
vn 0.000000 0.000000 -1.000000
vn 1.000000 0.000000 0.000000
vn -1.000000 0.000000 0.000000
vn 0.000000 0.707100 -0.707100
vn 0.707100 -0.707100 0.000000
vn 0.000000 -0.707100 -0.707100
vn 0.000000 -0.707100 0.707100
vn -0.707100 -0.707100 0.000000
vn 0.000000 0.707100 0.707100
vn -0.707100 0.000000 0.707100
vn -0.707100 0.000000 -0.707100
vn -0.707100 0.707100 0.000000
vn 0.707100 0.000000 -0.707100
vn 0.707100 0.000000 0.707100
s off
f 8/1/1 7/2/1 37/3/1
f 3/4/1 4/5/1 38/6/1
f 11/7/1 5/8/1 39/9/1
f 18/10/1 6/11/1 40/12/1
f 33/13/2 79/14/2 67/15/2
f 1/16/3 13/17/3 55/18/3
f 28/19/3 9/20/3 56/21/3
f 16/22/3 10/23/3 53/24/3
f 26/25/3 12/26/3 54/27/3
f 42/28/3 71/29/3 72/30/3
f 8/31/4 19/32/4 33/33/4
f 28/34/4 14/35/4 35/36/4
f 1/37/4 15/38/4 36/39/4
f 3/40/4 17/41/4 34/42/4
f 37/43/5 57/44/5 58/45/5
f 18/46/6 23/47/6 41/48/6
f 16/49/6 20/50/6 43/51/6
f 28/52/6 21/53/6 44/54/6
f 8/55/6 22/56/6 42/57/6
f 52/58/3 77/59/3 78/60/3
f 16/61/5 24/62/5 47/63/5
f 18/64/5 25/65/5 45/66/5
f 3/67/7 32/68/7 51/69/7
f 1/70/7 29/71/7 49/72/7
f 26/73/7 30/74/7 50/75/7
f 11/76/7 31/77/7 52/78/7
f 30/79/4 76/80/4 89/81/4
f 41/82/8 83/83/8 71/84/8
f 34/42/4 36/39/4 35/36/4
f 19/85/7 68/86/7 79/87/7
f 37/3/1 40/12/1 38/6/1
f 43/88/1 69/89/1 70/90/1
f 42/57/6 44/54/6 43/51/6
f 11/91/5 27/92/5 46/93/5
f 26/94/5 2/95/5 48/96/5
f 49/97/1 75/98/1 76/99/1
f 47/100/9 88/101/9 85/102/9
f 45/66/5 47/63/5 48/96/5
f 52/78/7 50/75/7 49/72/7
f 23/103/4 72/104/4 83/105/4
f 53/106/4 63/107/4 64/108/4
f 55/18/3 54/27/3 56/21/3
f 57/109/1 81/110/1 58/111/1
f 91/112/3 64/113/3 63/114/3
f 65/115/4 80/116/4 66/117/4
f 69/118/6 84/119/6 70/120/6
f 75/121/7 89/122/7 76/123/7
f 68/124/4 67/125/4 79/126/4
f 82/127/1 60/128/1 59/129/1
f 72/130/6 71/131/6 83/132/6
f 85/133/5 88/134/5 86/135/5
f 74/136/5 73/137/5 87/138/5
f 78/139/7 77/140/7 90/141/7
f 61/142/3 92/143/3 62/144/3
f 50/145/10 89/146/10 75/147/10
f 21/148/5 70/149/5 84/150/5
f 32/151/5 78/152/5 90/153/5
f 44/154/11 84/155/11 69/156/11
f 39/157/4 59/158/4 60/159/4
f 15/160/6 66/161/6 80/162/6
f 48/163/1 85/164/1 86/165/1
f 36/166/12 80/167/12 65/168/12
f 51/169/13 90/170/13 77/171/13
f 35/172/1 65/173/1 66/174/1
f 45/175/3 73/176/3 74/177/3
f 4/178/6 58/179/6 81/180/6
f 12/181/6 64/182/6 91/183/6
f 34/184/3 67/185/3 68/186/3
f 38/187/14 81/188/14 57/189/14
f 54/190/15 91/191/15 63/192/15
f 27/193/6 74/194/6 87/195/6
f 46/196/16 87/197/16 73/198/16
f 55/199/5 61/200/5 62/201/5
f 6/202/7 60/203/7 82/204/7
f 9/205/7 62/206/7 92/207/7
f 24/208/7 86/209/7 88/210/7
f 40/211/17 82/212/17 59/213/17
f 56/214/18 92/215/18 61/216/18
f 37/3/1 3/4/1 8/1/1
f 3/4/1 37/3/1 4/5/1
f 38/6/1 11/7/1 3/4/1
f 11/7/1 38/6/1 5/8/1
f 39/9/1 18/10/1 11/7/1
f 18/10/1 39/9/1 6/11/1
f 40/12/1 8/1/1 18/10/1
f 8/1/1 40/12/1 7/2/1
f 34/217/2 33/13/2 67/15/2
f 55/18/3 28/19/3 1/16/3
f 28/19/3 55/18/3 9/20/3
f 56/21/3 16/22/3 28/19/3
f 16/22/3 56/21/3 10/23/3
f 53/24/3 26/25/3 16/22/3
f 26/25/3 53/24/3 12/26/3
f 54/27/3 1/16/3 26/25/3
f 1/16/3 54/27/3 13/17/3
f 23/218/3 42/28/3 72/30/3
f 33/33/4 28/34/4 8/31/4
f 28/34/4 33/33/4 14/35/4
f 35/36/4 1/37/4 28/34/4
f 1/37/4 35/36/4 15/38/4
f 36/39/4 3/40/4 1/37/4
f 3/40/4 36/39/4 17/41/4
f 34/42/4 8/31/4 3/40/4
f 8/31/4 34/42/4 19/32/4
f 4/219/5 37/43/5 58/45/5
f 41/48/6 16/49/6 18/46/6
f 16/49/6 41/48/6 20/50/6
f 43/51/6 28/52/6 16/49/6
f 28/52/6 43/51/6 21/53/6
f 44/54/6 8/55/6 28/52/6
f 8/55/6 44/54/6 22/56/6
f 42/57/6 18/46/6 8/55/6
f 18/46/6 42/57/6 23/47/6
f 32/220/3 52/58/3 78/60/3
f 47/63/5 18/64/5 16/61/5
f 18/64/5 47/63/5 25/65/5
f 45/66/5 11/91/5 18/64/5
f 11/91/5 45/66/5 27/92/5
f 51/69/7 1/70/7 3/67/7
f 1/70/7 51/69/7 29/71/7
f 49/72/7 26/73/7 1/70/7
f 26/73/7 49/72/7 30/74/7
f 50/75/7 11/76/7 26/73/7
f 11/76/7 50/75/7 31/77/7
f 52/78/7 3/67/7 11/76/7
f 3/67/7 52/78/7 32/68/7
f 50/221/4 30/79/4 89/81/4
f 42/222/8 41/82/8 71/84/8
f 35/36/4 33/33/4 34/42/4
f 33/33/4 35/36/4 14/35/4
f 34/42/4 17/41/4 36/39/4
f 33/223/7 19/85/7 79/87/7
f 40/12/1 37/3/1 7/2/1
f 39/9/1 5/8/1 38/6/1
f 38/6/1 40/12/1 39/9/1
f 21/224/1 43/88/1 70/90/1
f 43/51/6 41/48/6 42/57/6
f 41/48/6 43/51/6 20/50/6
f 42/57/6 22/56/6 44/54/6
f 46/93/5 26/94/5 11/91/5
f 26/94/5 46/93/5 2/95/5
f 48/96/5 16/61/5 26/94/5
f 16/61/5 48/96/5 24/62/5
f 30/225/1 49/97/1 76/99/1
f 48/226/9 47/100/9 85/102/9
f 48/96/5 46/93/5 45/66/5
f 46/93/5 48/96/5 2/95/5
f 45/66/5 25/65/5 47/63/5
f 49/72/7 51/69/7 52/78/7
f 51/69/7 49/72/7 29/71/7
f 52/78/7 31/77/7 50/75/7
f 41/227/4 23/103/4 83/105/4
f 12/228/4 53/106/4 64/108/4
f 54/27/3 55/18/3 13/17/3
f 53/24/3 10/23/3 56/21/3
f 56/21/3 54/27/3 53/24/3
f 49/229/10 50/145/10 75/147/10
f 44/230/5 21/148/5 84/150/5
f 51/231/5 32/151/5 90/153/5
f 43/232/11 44/154/11 69/156/11
f 6/233/4 39/157/4 60/159/4
f 36/234/6 15/160/6 80/162/6
f 24/235/1 48/163/1 86/165/1
f 35/236/12 36/166/12 65/168/12
f 52/237/13 51/169/13 77/171/13
f 15/238/1 35/172/1 66/174/1
f 27/239/3 45/175/3 74/177/3
f 38/240/6 4/178/6 81/180/6
f 54/241/6 12/181/6 91/183/6
f 19/242/3 34/184/3 68/186/3
f 37/243/14 38/187/14 57/189/14
f 53/244/15 54/190/15 63/192/15
f 46/245/6 27/193/6 87/195/6
f 45/246/16 46/196/16 73/198/16
f 9/247/5 55/199/5 62/201/5
f 40/248/7 6/202/7 82/204/7
f 56/249/7 9/205/7 92/207/7
f 47/250/7 24/208/7 88/210/7
f 39/251/17 40/211/17 59/213/17
f 55/252/18 56/214/18 61/216/18
