# Blender v2.75 (sub 0) OBJ File: 'WallSpikeTrap.blend'
# www.blender.org
o Cube.002_Cube.001
v -0.945422 0.000000 1.000000
v -1.000000 0.000000 0.945422
v -0.984015 0.000000 0.984015
v -1.000000 0.000000 -0.945422
v -0.945422 0.000000 -1.000000
v -0.984015 0.000000 -0.984015
v 1.000000 0.000000 0.945422
v 0.945422 0.000000 1.000000
v 0.984015 0.000000 0.984015
v 0.945422 0.000000 -1.000000
v 1.000000 0.000000 -0.945422
v 0.984015 0.000000 -0.984015
v -0.852853 0.050000 0.798276
v -0.798276 0.050000 0.852853
v -0.836868 0.050000 0.836868
v -0.798276 0.050000 -0.852853
v -0.852853 0.050000 -0.798276
v -0.836868 0.050000 -0.836868
v 0.852853 0.050000 -0.798276
v 0.798276 0.050000 -0.852853
v 0.836868 0.050000 -0.836868
v 0.798276 0.050000 0.852853
v 0.852853 0.050000 0.798276
v 0.836868 0.050000 0.836868
v -0.838538 0.162987 0.783961
v -0.783961 0.162987 0.838538
v -0.822553 0.162987 0.822553
v -0.796540 0.200000 0.741963
v -0.741963 0.200000 0.796540
v -0.780555 0.200000 0.780555
v -0.824295 0.189159 0.769717
v -0.769717 0.189159 0.824295
v -0.808310 0.189159 0.808310
v -0.741963 0.200000 -0.796540
v -0.796540 0.200000 -0.741963
v -0.780555 0.200000 -0.780555
v -0.783961 0.162987 -0.838538
v -0.838538 0.162987 -0.783961
v -0.822553 0.162987 -0.822553
v -0.769717 0.189159 -0.824295
v -0.824295 0.189159 -0.769717
v -0.808310 0.189159 -0.808310
v 0.796540 0.200000 -0.741963
v 0.741963 0.200000 -0.796540
v 0.780555 0.200000 -0.780555
v 0.838538 0.162987 -0.783961
v 0.783961 0.162987 -0.838538
v 0.822553 0.162987 -0.822553
v 0.824295 0.189159 -0.769717
v 0.769717 0.189159 -0.824295
v 0.808310 0.189159 -0.808310
v 0.741963 0.200000 0.796540
v 0.796540 0.200000 0.741963
v 0.780555 0.200000 0.780555
v 0.783961 0.162987 0.838538
v 0.838538 0.162987 0.783961
v 0.822553 0.162987 0.822553
v 0.769717 0.189159 0.824295
v 0.824295 0.189159 0.769717
v 0.808310 0.189159 0.808310
v -1.000000 0.090613 0.945422
v -0.945422 0.090613 1.000000
v -0.984015 0.090613 0.984015
v -0.936036 0.100000 0.990613
v -0.990613 0.100000 0.936036
v -0.974628 0.100000 0.974628
v -0.990613 0.100000 -0.936036
v -0.936036 0.100000 -0.990613
v -0.974628 0.100000 -0.974628
v -0.945422 0.090613 -1.000000
v -1.000000 0.090613 -0.945422
v -0.984015 0.090613 -0.984015
v 0.990613 0.100000 0.936036
v 0.936036 0.100000 0.990613
v 0.974628 0.100000 0.974628
v 0.945422 0.090613 1.000000
v 1.000000 0.090613 0.945422
v 0.984015 0.090613 0.984015
v 0.936036 0.100000 -0.990613
v 0.990613 0.100000 -0.936036
v 0.974628 0.100000 -0.974628
v 1.000000 0.090613 -0.945422
v 0.945422 0.090613 -1.000000
v 0.984015 0.090613 -0.984015
v -0.909387 0.100000 0.854809
v -0.854809 0.100000 0.909387
v -0.893401 0.100000 0.893401
v -0.838983 0.093171 0.893560
v -0.893560 0.093171 0.838983
v -0.877575 0.093171 0.877575
v -0.893560 0.093171 -0.838983
v -0.838983 0.093171 -0.893560
v -0.877575 0.093171 -0.877575
v -0.854809 0.100000 -0.909387
v -0.909387 0.100000 -0.854809
v -0.893402 0.100000 -0.893402
v 0.838983 0.093171 -0.893560
v 0.893560 0.093171 -0.838983
v 0.877575 0.093171 -0.877575
v 0.909387 0.100000 -0.854809
v 0.854809 0.100000 -0.909387
v 0.893402 0.100000 -0.893402
v 0.893560 0.093171 0.838983
v 0.838983 0.093171 0.893560
v 0.877575 0.093171 0.877575
v 0.854809 0.100000 0.909387
v 0.909387 0.100000 0.854809
v 0.893402 0.100000 0.893402
v -0.798276 0.050000 -0.852853
v -0.836868 0.050000 -0.836868
v -0.836868 0.050000 -0.836868
v -0.852853 0.050000 -0.798276
v -0.836868 0.050000 0.836868
v -0.836868 0.050000 0.836868
v -0.798276 0.050000 0.852853
v -0.852853 0.050000 0.798276
v 0.836868 0.050000 0.836868
v 0.836868 0.050000 0.836868
v 0.852853 0.050000 0.798276
v 0.798276 0.050000 0.852853
v 0.852853 0.050000 -0.798276
v 0.836868 0.050000 -0.836868
v 0.836868 0.050000 -0.836868
v 0.798276 0.050000 -0.852853
v -0.984015 0.090613 0.984015
v -0.984015 0.090613 0.984015
v -0.945422 0.090613 1.000000
v -1.000000 0.090613 0.945422
v -0.945422 0.090613 -1.000000
v -0.984015 0.090613 -0.984015
v -0.984015 0.090613 -0.984015
v -1.000000 0.090613 -0.945422
v 1.000000 0.090613 -0.945422
v 0.984015 0.090613 -0.984015
v 0.984015 0.090613 -0.984015
v 0.945422 0.090613 -1.000000
v 0.945422 0.090613 1.000000
v 0.984015 0.090613 0.984015
v 0.984015 0.090613 0.984015
v 1.000000 0.090613 0.945422
v 0.984015 0.000000 0.984015
v 0.984015 0.000000 0.984015
v 1.000000 0.000000 0.945422
v 0.945422 0.000000 1.000000
v -1.000000 0.000000 0.945422
v -0.984015 0.000000 0.984015
v -0.984015 0.000000 0.984015
v -0.945422 0.000000 1.000000
v -0.945422 0.000000 -1.000000
v -0.984015 0.000000 -0.984015
v -0.984015 0.000000 -0.984015
v -1.000000 0.000000 -0.945422
v 1.000000 0.000000 -0.945422
v 0.984015 0.000000 -0.984015
v 0.984015 0.000000 -0.984015
v 0.945422 0.000000 -1.000000
vt 0.023780 0.490440
vt 0.044337 0.470725
vt 0.477003 0.470725
vt 0.497559 0.009560
vt 0.477003 0.029275
vt 0.044337 0.029275
vt 0.925238 0.829261
vt 0.925238 0.421988
vt 0.937505 0.431868
vt 0.859898 0.431355
vt 0.882602 0.431355
vt 0.882602 0.890298
vt 0.738173 0.431355
vt 0.760877 0.431355
vt 0.760877 0.890298
vt 0.897786 0.421988
vt 0.910053 0.431868
vt 0.910053 0.819381
vt 0.798766 0.890298
vt 0.776062 0.890298
vt 0.776062 0.431355
vt 0.857212 0.433633
vt 0.859898 0.890298
vt 0.801452 0.888019
vt 0.798766 0.431355
vt 0.992408 0.829261
vt 0.980141 0.819381
vt 0.980141 0.431868
vt 0.842027 0.888019
vt 0.839341 0.890298
vt 0.839341 0.431355
vt 0.952689 0.829261
vt 0.952689 0.421988
vt 0.964956 0.431868
vt 0.735487 0.433633
vt 0.738173 0.890298
vt 0.511371 0.477193
vt 0.490815 0.457478
vt 0.490815 0.042522
vt 0.472997 0.466884
vt 0.009968 0.022807
vt 0.030524 0.042522
vt 0.030525 0.457478
vt 0.034530 0.453637
vt 0.048342 0.033117
vt 0.486810 0.046363
vt 0.816637 0.890298
vt 0.816637 0.431355
vt 0.007592 0.479472
vt 0.009968 0.477193
vt 0.014014 0.486560
vt 0.021405 0.492718
vt 0.513747 0.479471
vt 0.509702 0.488838
vt 0.507326 0.486560
vt 0.499935 0.492718
vt 0.499935 0.007282
vt 0.509701 0.011162
vt 0.507326 0.013440
vt 0.513747 0.020529
vt 0.007592 0.020529
vt 0.011638 0.011162
vt 0.014013 0.013440
vt 0.021405 0.007282
vt 0.038575 0.463004
vt 0.048342 0.466884
vt 0.486769 0.466845
vt 0.482764 0.463004
vt 0.486769 0.033155
vt 0.482764 0.036996
vt 0.034570 0.033155
vt 0.038575 0.036996
vt 0.799335 0.899665
vt 0.737604 0.899665
vt 0.817206 0.421988
vt 0.839910 0.421988
vt 0.737604 0.421988
vt 0.760308 0.421988
vt 0.882032 0.899665
vt 0.859328 0.899665
vt 0.839910 0.899665
vt 0.817206 0.899665
vt 0.034570 0.466845
vt 0.023780 0.009560
vt 0.497559 0.490440
vt 0.776631 0.421988
vt 0.799335 0.421988
vt 0.859328 0.421988
vt 0.882032 0.421988
vt 0.511371 0.022807
vt 0.048877 0.453123
vt 0.058644 0.042997
vt 0.048877 0.046877
vt 0.044832 0.056244
vt 0.034530 0.046363
vt 0.486810 0.453637
vt 0.472462 0.453123
vt 0.472997 0.033116
vt 0.472462 0.046877
vt 0.513747 0.979471
vt 0.021405 0.992718
vt 0.021405 0.507282
vt 0.937505 0.819381
vt 0.897786 0.829261
vt 0.857211 0.888019
vt 0.801452 0.433633
vt 0.992408 0.421988
vt 0.842027 0.433633
vt 0.964956 0.819381
vt 0.735487 0.888019
vt 0.011638 0.488838
vt 0.776631 0.899665
vt 0.760308 0.899665
vt 0.058644 0.457003
vt 0.044832 0.443756
vt 0.476508 0.443756
vt 0.462695 0.457003
vt 0.462695 0.042997
vt 0.476508 0.056244
vt 0.499935 0.507282
vt 0.513747 0.520528
vt 0.509701 0.511162
vt 0.007592 0.520529
vt 0.011638 0.511162
vt 0.007592 0.979472
vt 0.011638 0.988838
vt 0.509702 0.988838
vt 0.499935 0.992718
vt 0.939128 0.027265
vt 0.946152 0.020529
vt 0.946153 0.394178
vt 0.720302 0.431355
vt 0.720302 0.818867
vt 0.691483 0.815393
vt 0.617025 0.431355
vt 0.617025 0.818867
vt 0.588205 0.815393
vt 0.565386 0.818867
vt 0.536566 0.815393
vt 0.536566 0.434829
vt 0.632209 0.431355
vt 0.661029 0.434829
vt 0.661029 0.815393
vt 0.668094 0.811936
vt 0.535956 0.027265
vt 0.925316 0.014018
vt 0.925316 0.400688
vt 0.581140 0.438287
vt 0.588205 0.434829
vt 0.684418 0.438287
vt 0.691483 0.434829
vt 0.549768 0.014018
vt 0.542744 0.007282
vt 0.932340 0.007282
vt 0.529501 0.438287
vt 0.932340 0.407425
vt 0.542744 0.407425
vt 0.535956 0.387441
vt 0.528932 0.394178
vt 0.528932 0.020529
vt 0.540001 0.396808
vt 0.549768 0.400688
vt 0.942107 0.403545
vt 0.935083 0.396808
vt 0.580571 0.428919
vt 0.668664 0.428919
vt 0.668094 0.438287
vt 0.690913 0.824760
vt 0.683848 0.821303
vt 0.668664 0.821303
vt 0.661599 0.824760
vt 0.942107 0.011161
vt 0.935083 0.017898
vt 0.535997 0.824760
vt 0.528932 0.821303
vt 0.683848 0.428919
vt 0.690913 0.425462
vt 0.532977 0.011162
vt 0.540001 0.017898
vt 0.587636 0.824760
vt 0.580571 0.821303
vt 0.528932 0.428919
vt 0.535997 0.425462
vt 0.719733 0.828234
vt 0.632779 0.828234
vt 0.632209 0.818867
vt 0.587636 0.425462
vt 0.661599 0.425462
vt 0.565386 0.431355
vt 0.564817 0.828234
vt 0.719733 0.421988
vt 0.939128 0.387441
vt 0.581140 0.811936
vt 0.684418 0.811936
vt 0.529501 0.811936
vt 0.532977 0.403545
vt 0.616455 0.421988
vt 0.632779 0.421988
vt 0.564816 0.421988
vt 0.616455 0.828234
vn -0.390800 0.919100 0.050600
vn 0.143600 0.988900 -0.037600
vn 0.143600 0.988900 0.037600
vn 0.390800 0.919100 -0.050600
vn -0.143600 0.988900 0.037600
vn -0.143600 0.988900 -0.037600
vn -0.096000 0.865200 0.492200
vn 0.096000 0.865200 0.492200
vn 0.089400 0.726600 0.681200
vn 0.195100 0.000000 -0.980800
vn -0.195100 0.000000 -0.980800
vn -0.195100 0.000000 0.980800
vn 0.195100 0.000000 0.980800
vn 0.492200 0.865200 -0.096000
vn 0.681200 0.726600 -0.089400
vn 0.681200 0.726600 0.089400
vn 0.980800 0.000000 0.195100
vn 0.980800 0.000000 -0.195100
vn 0.050600 0.919100 -0.390800
vn 0.155900 0.772000 -0.616100
vn -0.155900 0.772000 -0.616100
vn 0.390800 0.919100 0.050600
vn 0.616100 0.772000 0.155900
vn 0.616100 0.772000 -0.155900
vn -0.492200 0.865200 0.096000
vn -0.681200 0.726600 0.089400
vn -0.681200 0.726600 -0.089400
vn -0.390800 0.919100 -0.050600
vn -0.616100 0.772000 -0.155900
vn -0.616100 0.772000 0.155900
vn 0.096000 0.865200 -0.492200
vn -0.096000 0.865200 -0.492200
vn -0.089400 0.726600 -0.681200
vn -0.050600 0.919100 0.390800
vn -0.155900 0.772000 0.616100
vn 0.155900 0.772000 0.616100
vn -0.050600 0.919100 -0.390800
vn 0.037600 0.988900 0.143600
vn -0.037600 0.988900 0.143600
vn 0.492200 0.865200 0.096000
vn 0.050600 0.919100 0.390800
vn -0.037600 0.988900 -0.143600
vn 0.037600 0.988900 -0.143600
vn -0.492200 0.865200 -0.096000
vn -0.980800 0.000000 -0.195100
vn -0.980800 0.000000 0.195100
vn -0.260400 0.929700 0.260400
vn -0.408200 0.816500 -0.408200
vn -0.260400 0.929700 -0.260400
vn 0.408200 0.816500 -0.408200
vn 0.260400 0.929700 -0.260400
vn 0.408200 0.816500 0.408200
vn 0.260400 0.929700 0.260400
vn 0.295000 0.908800 -0.295000
vn 0.078600 0.993800 0.078600
vn 0.295000 0.908800 0.295000
vn -0.078600 0.993800 0.078600
vn -0.295000 0.908800 0.295000
vn -0.078600 0.993800 -0.078600
vn -0.295000 0.908800 -0.295000
vn 0.923900 0.000000 0.382700
vn 0.382700 0.000000 0.923900
vn -0.923900 0.000000 0.382700
vn -0.382700 0.000000 0.923900
vn -0.382700 0.000000 -0.923900
vn -0.923900 0.000000 -0.382700
vn 0.078600 0.993800 -0.078600
vn 0.923900 0.000000 -0.382700
vn 0.382700 0.000000 -0.923900
vn 0.424200 0.800000 -0.424200
vn -0.424200 0.800000 -0.424200
vn 0.424200 0.800000 0.424200
vn -0.424200 0.800000 0.424200
vn 0.000000 -1.000000 0.000000
vn -0.089400 0.726600 0.681200
vn 0.089400 0.726600 -0.681200
vn -0.408200 0.816500 0.408200
vn 0.021200 0.981900 -0.188100
vn 0.110700 0.767800 -0.631000
vn -0.110700 0.767800 -0.631000
vn 0.204400 0.148500 -0.967500
vn -0.204400 0.148500 -0.967500
vn -0.192200 0.347200 -0.917800
vn -0.204400 0.148500 0.967500
vn 0.204400 0.148500 0.967500
vn 0.192200 0.347200 0.917800
vn 0.967500 0.148500 -0.204400
vn 0.917800 0.347200 -0.192200
vn 0.917800 0.347200 0.192200
vn -0.967500 0.148500 0.204400
vn -0.917800 0.347200 0.192200
vn -0.917800 0.347200 -0.192200
vn -0.631000 0.767800 -0.110700
vn 0.021200 0.981900 0.188100
vn 0.188100 0.981900 -0.021200
vn -0.188100 0.981900 -0.021200
vn -0.110700 0.767800 0.631000
vn -0.192200 0.347200 0.917800
vn 0.192200 0.347200 -0.917800
vn 0.188100 0.981900 0.021200
vn 0.631000 0.767800 0.110700
vn 0.631000 0.767800 -0.110700
vn -0.631000 0.767800 0.110700
vn -0.021200 0.981900 0.188100
vn 0.110700 0.767800 0.631000
vn -0.118000 0.986000 0.118000
vn -0.188100 0.981900 0.021200
vn -0.429700 0.794100 -0.429700
vn -0.118000 0.986000 -0.118000
vn -0.429700 0.794100 0.429700
vn -0.652700 0.384700 -0.652700
vn 0.429700 0.794100 -0.429700
vn 0.118000 0.986000 -0.118000
vn 0.652700 0.384700 -0.652700
vn 0.429700 0.794100 0.429700
vn 0.118000 0.986000 0.118000
vn 0.652700 0.384700 0.652700
vn -0.377500 0.163300 -0.911500
vn -0.911500 0.163300 -0.377500
vn -0.967500 0.148500 -0.204400
vn -0.652700 0.384700 0.652700
vn 0.967500 0.148500 0.204400
vn 0.911500 0.163300 -0.377500
vn 0.377500 0.163300 -0.911500
vn -0.021200 0.981900 -0.188100
vn -0.377500 0.163300 0.911500
vn -0.911500 0.163300 0.377500
vn 0.911500 0.163300 0.377500
vn 0.377500 0.163300 0.911500
s 1
f 65/1/1 85/2/2 95/3/3
f 80/4/4 100/5/5 107/6/6
f 97/7/7 92/8/8 16/9/9
f 83/10/10 156/11/10 149/12/11
f 62/13/12 148/14/12 144/15/13
f 89/16/14 13/17/15 17/18/16
f 77/19/17 143/20/17 153/21/18
f 79/22/19 136/10/20 129/23/21
f 73/24/22 140/19/23 133/25/24
f 98/26/25 19/27/26 23/28/27
f 67/29/28 132/30/29 128/31/30
f 88/32/31 104/33/32 22/34/33
f 64/35/34 127/13/35 137/36/36
f 68/37/37 94/38/38 101/39/39
f 91/40/40 95/3/3 85/2/2
f 74/41/41 106/42/42 86/43/43
f 88/44/31 86/43/43 106/42/42
f 103/45/44 107/6/6 100/5/5
f 97/46/7 101/39/39 94/38/38
f 71/30/45 152/47/45 145/48/46
f 127/49/35 64/50/34 66/51/47
f 66/51/47 65/1/1 128/52/30
f 129/53/21 130/54/48 69/55/49
f 69/55/49 130/54/48 132/56/29
f 133/57/24 134/58/50 81/59/51
f 81/59/51 134/58/50 136/60/20
f 137/61/36 138/62/52 75/63/53
f 75/63/53 138/62/52 140/64/23
f 86/43/43 88/44/31 90/65/54
f 90/65/54 89/66/14 85/2/2
f 94/38/38 96/67/55 93/68/56
f 93/68/56 96/67/55 95/3/3
f 100/5/5 102/69/57 99/70/58
f 99/70/58 102/69/57 101/39/39
f 106/42/42 108/71/59 105/72/60
f 105/72/60 108/71/59 107/6/6
f 143/20/17 77/19/17 139/73/61
f 78/74/62 76/36/13 144/15/13
f 145/48/46 146/75/63 126/76/63
f 63/77/64 147/78/64 148/14/12
f 149/12/11 150/79/65 131/80/65
f 72/81/66 151/82/66 152/47/45
f 65/1/1 66/51/47 87/83/67
f 87/83/67 66/51/47 64/50/34
f 73/84/22 107/6/6 108/71/59
f 108/71/59 106/42/42 74/41/41
f 68/37/37 69/55/49 96/67/55
f 96/67/55 69/55/49 67/85/28
f 153/21/18 154/86/68 135/87/68
f 84/88/69 155/89/69 156/11/10
f 80/4/4 81/59/51 102/69/57
f 102/69/57 81/59/51 79/90/19
f 89/66/14 90/65/54 15/91/70
f 15/91/70 90/65/54 88/44/31
f 103/45/44 23/92/27 24/93/71
f 24/93/71 22/94/33 104/95/32
f 92/96/8 93/68/56 18/97/72
f 18/97/72 93/68/56 91/40/40
f 98/98/25 99/70/58 21/99/73
f 21/99/73 99/70/58 97/46/7
f 1/100/74 4/101/74 11/102/74
f 67/85/28 65/1/1 95/3/3
f 73/84/22 80/4/4 107/6/6
f 20/103/75 97/7/7 16/9/9
f 70/23/11 83/10/10 149/12/11
f 76/36/13 62/13/12 144/15/13
f 91/104/40 89/16/14 17/18/16
f 82/25/18 77/19/17 153/21/18
f 68/105/37 79/22/19 129/23/21
f 80/106/4 73/24/22 133/25/24
f 103/107/44 98/26/25 23/28/27
f 65/108/1 67/29/28 128/31/30
f 14/109/76 88/32/31 22/34/33
f 74/110/41 64/35/34 137/36/36
f 79/90/19 68/37/37 101/39/39
f 89/66/14 91/40/40 85/2/2
f 64/50/34 74/41/41 86/43/43
f 104/95/32 88/44/31 106/42/42
f 98/98/25 103/45/44 100/5/5
f 92/96/8 97/46/7 94/38/38
f 61/31/46 71/30/45 145/48/46
f 125/111/77 127/49/35 66/51/47
f 125/111/77 66/51/47 128/52/30
f 68/37/37 129/53/21 69/55/49
f 67/85/28 69/55/49 132/56/29
f 80/4/4 133/57/24 81/59/51
f 79/90/19 81/59/51 136/60/20
f 74/41/41 137/61/36 75/63/53
f 73/84/22 75/63/53 140/64/23
f 87/83/67 86/43/43 90/65/54
f 87/83/67 90/65/54 85/2/2
f 92/96/8 94/38/38 93/68/56
f 91/40/40 93/68/56 95/3/3
f 98/98/25 100/5/5 99/70/58
f 97/46/7 99/70/58 101/39/39
f 104/95/32 106/42/42 105/72/60
f 103/45/44 105/72/60 107/6/6
f 141/112/61 143/20/17 139/73/61
f 142/113/62 78/74/62 144/15/13
f 61/31/46 145/48/46 126/76/63
f 62/13/12 63/77/64 148/14/12
f 70/23/11 149/12/11 131/80/65
f 71/30/45 72/81/66 152/47/45
f 85/2/2 65/1/1 87/83/67
f 86/43/43 87/83/67 64/50/34
f 75/63/53 73/84/22 108/71/59
f 75/63/53 108/71/59 74/41/41
f 94/38/38 68/37/37 96/67/55
f 95/3/3 96/67/55 67/85/28
f 82/25/18 153/21/18 135/87/68
f 83/10/10 84/88/69 156/11/10
f 100/5/5 80/4/4 102/69/57
f 101/39/39 102/69/57 79/90/19
f 13/114/15 89/66/14 15/91/70
f 14/115/76 15/91/70 88/44/31
f 105/72/60 103/45/44 24/93/71
f 105/72/60 24/93/71 104/95/32
f 16/116/9 92/96/8 18/97/72
f 17/117/16 18/97/72 91/40/40
f 19/118/26 98/98/25 21/99/73
f 20/119/75 21/99/73 97/46/7
f 7/120/74 8/121/74 1/100/74
f 8/121/74 7/120/74 9/122/74
f 10/123/74 12/124/74 11/102/74
f 4/101/74 5/125/74 10/123/74
f 5/125/74 4/101/74 6/126/74
f 1/100/74 3/127/74 2/128/74
f 11/102/74 7/120/74 1/100/74
f 4/101/74 10/123/74 11/102/74
f 1/100/74 2/128/74 4/101/74
f 44/129/78 50/130/79 40/131/80
f 124/132/81 109/133/82 37/134/83
f 115/135/84 120/136/85 55/137/86
f 121/138/87 46/139/88 56/140/89
f 116/141/90 25/142/91 38/143/92
f 41/144/93 38/143/92 25/142/91
f 52/145/94 43/146/95 35/147/96
f 32/148/97 26/149/98 55/137/86
f 50/150/79 47/151/99 37/134/83
f 53/152/100 59/153/101 49/154/102
f 59/155/101 56/140/89 46/139/88
f 35/147/96 41/156/93 31/157/103
f 29/158/104 32/159/97 58/160/105
f 32/159/97 29/158/104 30/161/106
f 30/161/106 28/162/107 31/157/103
f 40/131/80 42/163/108 36/164/109
f 36/164/109 42/163/108 41/156/93
f 26/149/98 32/148/97 33/165/110
f 33/166/110 31/167/103 25/142/91
f 37/134/83 39/168/111 42/169/108
f 42/170/108 39/171/111 38/143/92
f 49/154/102 51/172/112 45/173/113
f 45/173/113 51/172/112 50/130/79
f 46/139/88 48/174/114 51/175/112
f 51/176/112 48/177/114 47/151/99
f 58/160/105 60/178/115 54/179/116
f 54/179/116 60/178/115 59/153/101
f 55/137/86 57/180/117 60/181/115
f 60/182/115 57/183/117 56/140/89
f 109/133/82 110/184/118 39/168/111
f 39/171/111 111/185/119 112/186/120
f 115/135/84 26/149/98 27/187/121
f 27/188/121 25/142/91 116/141/90
f 119/189/122 56/140/89 57/183/117
f 57/180/117 55/137/86 120/136/85
f 121/138/87 122/190/123 48/174/114
f 48/177/114 123/191/124 124/132/81
f 34/192/125 44/129/78 40/131/80
f 47/151/99 124/132/81 37/134/83
f 26/149/98 115/135/84 55/137/86
f 119/189/122 121/138/87 56/140/89
f 112/186/120 116/141/90 38/143/92
f 31/167/103 41/144/93 25/142/91
f 28/162/107 29/158/104 52/145/94
f 29/158/104 28/162/107 30/161/106
f 34/192/125 36/164/109 35/147/96
f 43/146/95 44/129/78 34/192/125
f 44/129/78 43/146/95 45/173/113
f 52/145/94 54/179/116 53/152/100
f 35/147/96 28/162/107 52/145/94
f 43/146/95 34/192/125 35/147/96
f 52/145/94 53/152/100 43/146/95
f 58/193/105 32/148/97 55/137/86
f 40/194/80 50/150/79 37/134/83
f 43/146/95 53/152/100 49/154/102
f 49/195/102 59/155/101 46/139/88
f 28/162/107 35/147/96 31/157/103
f 52/145/94 29/158/104 58/160/105
f 33/196/110 32/159/97 30/161/106
f 33/196/110 30/161/106 31/157/103
f 34/192/125 40/131/80 36/164/109
f 35/147/96 36/164/109 41/156/93
f 27/187/121 26/149/98 33/165/110
f 27/188/121 33/166/110 25/142/91
f 40/194/80 37/134/83 42/169/108
f 41/144/93 42/170/108 38/143/92
f 43/146/95 49/154/102 45/173/113
f 44/129/78 45/173/113 50/130/79
f 49/195/102 46/139/88 51/175/112
f 50/150/79 51/176/112 47/151/99
f 52/145/94 58/160/105 54/179/116
f 53/152/100 54/179/116 59/153/101
f 58/193/105 55/137/86 60/181/115
f 59/155/101 60/182/115 56/140/89
f 37/134/83 109/133/82 39/168/111
f 38/143/92 39/171/111 112/186/120
f 113/197/126 115/135/84 27/187/121
f 114/198/127 27/188/121 116/141/90
f 117/199/128 119/189/122 57/183/117
f 118/200/129 57/180/117 120/136/85
f 46/139/88 121/138/87 48/174/114
f 47/151/99 48/177/114 124/132/81
