# Blender v2.75 (sub 0) OBJ File: 'WallSpikeTrap.blend'
# www.blender.org
o Cube.001_Cube.003
v -0.695000 0.500000 0.121175
v -0.691253 0.538043 0.121175
v -0.680157 0.574623 0.121175
v -0.662137 0.608336 0.121175
v -0.637886 0.637886 0.121175
v -0.608336 0.662136 0.121175
v -0.574623 0.680156 0.121175
v -0.538043 0.691253 0.121175
v -0.500000 0.695000 0.121175
v -0.691253 0.461957 0.121175
v -0.680157 0.425377 0.121175
v -0.662137 0.391664 0.121175
v -0.637886 0.362114 0.121175
v -0.608336 0.337863 0.121175
v -0.574623 0.319843 0.121175
v -0.538043 0.308747 0.121175
v -0.500000 0.305000 0.121175
v -0.461957 0.308747 0.121175
v -0.425377 0.319843 0.121175
v -0.391664 0.337863 0.121175
v -0.362114 0.362114 0.121175
v -0.337863 0.391664 0.121175
v -0.319843 0.425377 0.121175
v -0.308747 0.461957 0.121175
v -0.305000 0.500000 0.121175
v -0.308747 0.538043 0.121175
v -0.319844 0.574623 0.121175
v -0.337864 0.608336 0.121175
v -0.362114 0.637886 0.121175
v -0.391664 0.662137 0.121175
v -0.425377 0.680156 0.121175
v -0.461958 0.691253 0.121175
v -0.695000 0.500000 5.121175
v -0.691253 0.538043 5.121175
v -0.680157 0.574624 5.121175
v -0.662137 0.608337 5.121175
v -0.637886 0.637886 5.121175
v -0.608336 0.662137 5.121175
v -0.574623 0.680157 5.121175
v -0.538043 0.691254 5.121175
v -0.500000 0.695000 5.121175
v -0.691253 0.461958 5.121175
v -0.680157 0.425377 5.121175
v -0.662137 0.391664 5.121175
v -0.637886 0.362115 5.121175
v -0.608336 0.337864 5.121175
v -0.574623 0.319844 5.121175
v -0.538043 0.308747 5.121175
v -0.500000 0.305000 5.121175
v -0.461957 0.308747 5.121175
v -0.425377 0.319844 5.121175
v -0.391664 0.337864 5.121175
v -0.362114 0.362115 5.121175
v -0.337863 0.391664 5.121175
v -0.319843 0.425377 5.121175
v -0.308747 0.461958 5.121175
v -0.305000 0.500001 5.121175
v -0.308747 0.538043 5.121175
v -0.319844 0.574624 5.121175
v -0.337864 0.608337 5.121175
v -0.362114 0.637886 5.121175
v -0.391664 0.662137 5.121175
v -0.425377 0.680157 5.121175
v -0.461958 0.691254 5.121175
v -0.500000 0.500000 5.904440
v -0.980833 0.500000 5.004440
v -0.500000 0.980833 5.004440
v -0.500000 0.019167 5.004440
v -0.019167 0.500000 5.004440
v -0.307667 0.692333 5.104440
v -0.692333 0.307667 5.104440
v -0.692333 0.692333 5.104440
v -0.307667 0.307667 5.104440
v -0.500000 0.500000 5.104440
v -0.692333 0.692333 5.104440
v -0.980833 0.500000 5.004440
v -0.980833 0.500000 5.004440
v -0.500000 0.500000 5.904440
v -0.500000 0.500000 5.904440
v -0.500000 0.500000 5.904440
v -0.307667 0.692333 5.104440
v -0.019167 0.500000 5.004440
v -0.019167 0.500000 5.004440
v -0.307667 0.307667 5.104440
v -0.500000 0.019167 5.004440
v -0.500000 0.019167 5.004440
v -0.692333 0.307667 5.104440
v -0.500000 0.980833 5.004440
v -0.500000 0.980833 5.004440
v 0.695000 0.500000 0.121175
v 0.691253 0.538043 0.121175
v 0.680157 0.574623 0.121175
v 0.662137 0.608336 0.121175
v 0.637886 0.637886 0.121175
v 0.608336 0.662136 0.121175
v 0.574623 0.680156 0.121175
v 0.538043 0.691253 0.121175
v 0.500000 0.695000 0.121175
v 0.691253 0.461957 0.121175
v 0.680157 0.425377 0.121175
v 0.662137 0.391664 0.121175
v 0.637886 0.362114 0.121175
v 0.608336 0.337863 0.121175
v 0.574623 0.319843 0.121175
v 0.538043 0.308747 0.121175
v 0.500000 0.305000 0.121175
v 0.461957 0.308747 0.121175
v 0.425377 0.319843 0.121175
v 0.391664 0.337863 0.121175
v 0.362114 0.362114 0.121175
v 0.337863 0.391664 0.121175
v 0.319843 0.425377 0.121175
v 0.308747 0.461957 0.121175
v 0.305000 0.500000 0.121175
v 0.308747 0.538043 0.121175
v 0.319844 0.574623 0.121175
v 0.337864 0.608336 0.121175
v 0.362114 0.637886 0.121175
v 0.391664 0.662137 0.121175
v 0.425377 0.680156 0.121175
v 0.461958 0.691253 0.121175
v 0.695000 0.500000 5.121175
v 0.691253 0.538043 5.121175
v 0.680157 0.574624 5.121175
v 0.662137 0.608337 5.121175
v 0.637886 0.637886 5.121175
v 0.608336 0.662137 5.121175
v 0.574623 0.680157 5.121175
v 0.538043 0.691254 5.121175
v 0.500000 0.695000 5.121175
v 0.691253 0.461958 5.121175
v 0.680157 0.425377 5.121175
v 0.662137 0.391664 5.121175
v 0.637886 0.362115 5.121175
v 0.608336 0.337864 5.121175
v 0.574623 0.319844 5.121175
v 0.538043 0.308747 5.121175
v 0.500000 0.305000 5.121175
v 0.461957 0.308747 5.121175
v 0.425377 0.319844 5.121175
v 0.391664 0.337864 5.121175
v 0.362114 0.362115 5.121175
v 0.337863 0.391664 5.121175
v 0.319843 0.425377 5.121175
v 0.308747 0.461958 5.121175
v 0.305000 0.500001 5.121175
v 0.308747 0.538043 5.121175
v 0.319844 0.574624 5.121175
v 0.337864 0.608337 5.121175
v 0.362114 0.637886 5.121175
v 0.391664 0.662137 5.121175
v 0.425377 0.680157 5.121175
v 0.461958 0.691254 5.121175
v 0.500000 0.500000 5.904440
v 0.980833 0.500000 5.004440
v 0.500000 0.980833 5.004440
v 0.500000 0.019167 5.004440
v 0.019167 0.500000 5.004440
v 0.307667 0.692333 5.104440
v 0.692333 0.307667 5.104440
v 0.692333 0.692333 5.104440
v 0.307667 0.307667 5.104440
v 0.500000 0.500000 5.104440
v 0.692333 0.692333 5.104440
v 0.980833 0.500000 5.004440
v 0.980833 0.500000 5.004440
v 0.500000 0.500000 5.904440
v 0.500000 0.500000 5.904440
v 0.500000 0.500000 5.904440
v 0.307667 0.692333 5.104440
v 0.019167 0.500000 5.004440
v 0.019167 0.500000 5.004440
v 0.307667 0.307667 5.104440
v 0.500000 0.019167 5.004440
v 0.500000 0.019167 5.004440
v 0.692333 0.307667 5.104440
v 0.500000 0.980833 5.004440
v 0.500000 0.980833 5.004440
v -0.695000 -0.500000 0.121175
v -0.691253 -0.538043 0.121175
v -0.680157 -0.574623 0.121175
v -0.662137 -0.608336 0.121175
v -0.637886 -0.637886 0.121175
v -0.608336 -0.662136 0.121175
v -0.574623 -0.680156 0.121175
v -0.538043 -0.691253 0.121175
v -0.500000 -0.695000 0.121175
v -0.691253 -0.461957 0.121175
v -0.680157 -0.425377 0.121175
v -0.662137 -0.391664 0.121175
v -0.637886 -0.362114 0.121175
v -0.608336 -0.337863 0.121175
v -0.574623 -0.319843 0.121175
v -0.538043 -0.308747 0.121175
v -0.500000 -0.305000 0.121175
v -0.461957 -0.308747 0.121175
v -0.425377 -0.319843 0.121175
v -0.391664 -0.337863 0.121175
v -0.362114 -0.362114 0.121175
v -0.337863 -0.391664 0.121175
v -0.319843 -0.425377 0.121175
v -0.308747 -0.461957 0.121175
v -0.305000 -0.500000 0.121175
v -0.308747 -0.538043 0.121175
v -0.319844 -0.574623 0.121175
v -0.337864 -0.608336 0.121175
v -0.362114 -0.637886 0.121175
v -0.391664 -0.662137 0.121175
v -0.425377 -0.680156 0.121175
v -0.461958 -0.691253 0.121175
v -0.695000 -0.500000 5.121175
v -0.691253 -0.538043 5.121175
v -0.680157 -0.574624 5.121175
v -0.662137 -0.608337 5.121175
v -0.637886 -0.637886 5.121175
v -0.608336 -0.662137 5.121175
v -0.574623 -0.680157 5.121175
v -0.538043 -0.691254 5.121175
v -0.500000 -0.695000 5.121175
v -0.691253 -0.461958 5.121175
v -0.680157 -0.425377 5.121175
v -0.662137 -0.391664 5.121175
v -0.637886 -0.362115 5.121175
v -0.608336 -0.337864 5.121175
v -0.574623 -0.319844 5.121175
v -0.538043 -0.308747 5.121175
v -0.500000 -0.305000 5.121175
v -0.461957 -0.308747 5.121175
v -0.425377 -0.319844 5.121175
v -0.391664 -0.337864 5.121175
v -0.362114 -0.362115 5.121175
v -0.337863 -0.391664 5.121175
v -0.319843 -0.425377 5.121175
v -0.308747 -0.461958 5.121175
v -0.305000 -0.500001 5.121175
v -0.308747 -0.538043 5.121175
v -0.319844 -0.574624 5.121175
v -0.337864 -0.608337 5.121175
v -0.362114 -0.637886 5.121175
v -0.391664 -0.662137 5.121175
v -0.425377 -0.680157 5.121175
v -0.461958 -0.691254 5.121175
v -0.500000 -0.500000 5.904440
v -0.980833 -0.500000 5.004440
v -0.500000 -0.980833 5.004440
v -0.500000 -0.019167 5.004440
v -0.019167 -0.500000 5.004440
v -0.307667 -0.692333 5.104440
v -0.692333 -0.307667 5.104440
v -0.692333 -0.692333 5.104440
v -0.307667 -0.307667 5.104440
v -0.500000 -0.500000 5.104440
v -0.692333 -0.692333 5.104440
v -0.980833 -0.500000 5.004440
v -0.980833 -0.500000 5.004440
v -0.500000 -0.500000 5.904440
v -0.500000 -0.500000 5.904440
v -0.500000 -0.500000 5.904440
v -0.307667 -0.692333 5.104440
v -0.019167 -0.500000 5.004440
v -0.019167 -0.500000 5.004440
v -0.307667 -0.307667 5.104440
v -0.500000 -0.019167 5.004440
v -0.500000 -0.019167 5.004440
v -0.692333 -0.307667 5.104440
v -0.500000 -0.980833 5.004440
v -0.500000 -0.980833 5.004440
v 0.695000 -0.500000 0.121175
v 0.691253 -0.538043 0.121175
v 0.680157 -0.574623 0.121175
v 0.662137 -0.608336 0.121175
v 0.637886 -0.637886 0.121175
v 0.608336 -0.662136 0.121175
v 0.574623 -0.680156 0.121175
v 0.538043 -0.691253 0.121175
v 0.500000 -0.695000 0.121175
v 0.691253 -0.461957 0.121175
v 0.680157 -0.425377 0.121175
v 0.662137 -0.391664 0.121175
v 0.637886 -0.362114 0.121175
v 0.608336 -0.337863 0.121175
v 0.574623 -0.319843 0.121175
v 0.538043 -0.308747 0.121175
v 0.500000 -0.305000 0.121175
v 0.461957 -0.308747 0.121175
v 0.425377 -0.319843 0.121175
v 0.391664 -0.337863 0.121175
v 0.362114 -0.362114 0.121175
v 0.337863 -0.391664 0.121175
v 0.319843 -0.425377 0.121175
v 0.308747 -0.461957 0.121175
v 0.305000 -0.500000 0.121175
v 0.308747 -0.538043 0.121175
v 0.319844 -0.574623 0.121175
v 0.337864 -0.608336 0.121175
v 0.362114 -0.637886 0.121175
v 0.391664 -0.662137 0.121175
v 0.425377 -0.680156 0.121175
v 0.461958 -0.691253 0.121175
v 0.695000 -0.500000 5.121175
v 0.691253 -0.538043 5.121175
v 0.680157 -0.574624 5.121175
v 0.662137 -0.608337 5.121175
v 0.637886 -0.637886 5.121175
v 0.608336 -0.662137 5.121175
v 0.574623 -0.680157 5.121175
v 0.538043 -0.691254 5.121175
v 0.500000 -0.695000 5.121175
v 0.691253 -0.461958 5.121175
v 0.680157 -0.425377 5.121175
v 0.662137 -0.391664 5.121175
v 0.637886 -0.362115 5.121175
v 0.608336 -0.337864 5.121175
v 0.574623 -0.319844 5.121175
v 0.538043 -0.308747 5.121175
v 0.500000 -0.305000 5.121175
v 0.461957 -0.308747 5.121175
v 0.425377 -0.319844 5.121175
v 0.391664 -0.337864 5.121175
v 0.362114 -0.362115 5.121175
v 0.337863 -0.391664 5.121175
v 0.319843 -0.425377 5.121175
v 0.308747 -0.461958 5.121175
v 0.305000 -0.500001 5.121175
v 0.308747 -0.538043 5.121175
v 0.319844 -0.574624 5.121175
v 0.337864 -0.608337 5.121175
v 0.362114 -0.637886 5.121175
v 0.391664 -0.662137 5.121175
v 0.425377 -0.680157 5.121175
v 0.461958 -0.691254 5.121175
v 0.500000 -0.500000 5.904440
v 0.980833 -0.500000 5.004440
v 0.500000 -0.980833 5.004440
v 0.500000 -0.019167 5.004440
v 0.019167 -0.500000 5.004440
v 0.307667 -0.692333 5.104440
v 0.692333 -0.307667 5.104440
v 0.692333 -0.692333 5.104440
v 0.307667 -0.307667 5.104440
v 0.500000 -0.500000 5.104440
v 0.692333 -0.692333 5.104440
v 0.980833 -0.500000 5.004440
v 0.980833 -0.500000 5.004440
v 0.500000 -0.500000 5.904440
v 0.500000 -0.500000 5.904440
v 0.500000 -0.500000 5.904440
v 0.307667 -0.692333 5.104440
v 0.019167 -0.500000 5.004440
v 0.019167 -0.500000 5.004440
v 0.307667 -0.307667 5.104440
v 0.500000 -0.019167 5.004440
v 0.500000 -0.019167 5.004440
v 0.692333 -0.307667 5.104440
v 0.500000 -0.980833 5.004440
v 0.500000 -0.980833 5.004440
vt 0.167797 0.006009
vt 0.167797 0.992981
vt 0.154576 0.993181
vt 0.087476 0.006255
vt 0.087475 0.993226
vt 0.074379 0.993003
vt 0.181503 0.005949
vt 0.181503 0.992920
vt 0.099502 0.006608
vt 0.099501 0.993579
vt 0.021559 0.006544
vt 0.021559 0.993515
vt 0.010793 0.993968
vt 0.195167 0.006032
vt 0.195167 0.993003
vt 0.109995 0.007079
vt 0.109995 0.994050
vt 0.252369 0.992921
vt 0.252369 0.005949
vt 0.262863 0.006421
vt 0.208263 0.006255
vt 0.208264 0.993226
vt 0.383923 0.006544
vt 0.383923 0.993515
vt 0.373157 0.993968
vt 0.262863 0.993392
vt 0.274889 0.006774
vt 0.220290 0.006608
vt 0.220290 0.993579
vt 0.396152 0.006210
vt 0.396152 0.993181
vt 0.274889 0.993745
vt 0.287986 0.006997
vt 0.230783 0.007079
vt 0.230783 0.994050
vt 0.409373 0.006009
vt 0.409373 0.992981
vt 0.287985 0.993968
vt 0.301649 0.007079
vt 0.340805 0.993456
vt 0.340805 0.006485
vt 0.351571 0.006032
vt 0.423079 0.005949
vt 0.423079 0.992921
vt 0.301649 0.994051
vt 0.315355 0.007019
vt 0.436743 0.006032
vt 0.436743 0.993003
vt 0.315355 0.993990
vt 0.328577 0.006818
vt 0.449839 0.006255
vt 0.449840 0.993226
vt 0.328576 0.993790
vt 0.461866 0.006608
vt 0.461866 0.993579
vt 0.033788 0.006210
vt 0.033788 0.993181
vt 0.472359 0.007079
vt 0.472359 0.994050
vt 0.047009 0.006009
vt 0.047009 0.992981
vt 0.142347 0.006544
vt 0.142347 0.993515
vt 0.131581 0.993968
vt 0.060715 0.005949
vt 0.060715 0.992921
vt 0.154576 0.006210
vt 0.074379 0.006032
vt 0.010793 0.006997
vt 0.373157 0.006997
vt 0.351571 0.993003
vt 0.131581 0.006997
vt 0.964743 0.480842
vt 0.989207 0.548269
vt 0.866886 0.534783
vt 0.769029 0.480842
vt 0.866886 0.480842
vt 0.866886 0.426901
vt 0.989207 0.413416
vt 0.722978 0.217271
vt 0.623664 0.371206
vt 0.493945 0.371643
vt 0.866263 0.159885
vt 0.965577 0.005949
vt 0.965577 0.198389
vt 0.882998 0.217271
vt 0.868531 0.380456
vt 0.744564 0.401517
vt 0.714958 0.205372
vt 0.615045 0.051555
vt 0.714958 0.005949
vt 0.493945 0.056406
vt 0.983783 0.401517
vt 0.736544 0.160322
vt 0.722978 0.409711
vt 0.744564 0.548269
vt 0.744565 0.413416
vn 0.923900 0.382700 0.000000
vn 0.980800 0.195100 0.000000
vn -0.555600 -0.831400 0.000000
vn -0.707100 -0.707100 0.000000
vn 0.831400 0.555600 0.000000
vn -0.382700 -0.923900 0.000000
vn -1.000000 0.000000 0.000000
vn -0.980800 0.195100 0.000000
vn 0.707100 0.707100 0.000000
vn -0.195100 -0.980800 0.000000
vn -0.923900 0.382700 0.000000
vn 0.555600 0.831400 0.000000
vn 0.000000 -1.000000 0.000000
vn -0.831400 0.555600 0.000000
vn 0.382700 0.923900 0.000000
vn 0.195100 -0.980800 0.000000
vn -0.707100 0.707100 0.000000
vn 0.195100 0.980800 0.000000
vn 0.382700 -0.923900 0.000000
vn -0.555600 0.831400 0.000000
vn 0.000000 1.000000 0.000000
vn 0.555600 -0.831400 0.000000
vn -0.382700 0.923900 0.000000
vn 0.707100 -0.707100 0.000000
vn -0.195100 0.980800 0.000000
vn 0.831400 -0.555600 0.000000
vn 0.923900 -0.382700 0.000000
vn -0.980800 -0.195100 0.000000
vn 0.980800 -0.195100 0.000000
vn -0.923900 -0.382700 0.000000
vn 1.000000 0.000000 0.000000
vn -0.831400 -0.555600 0.000000
vn -0.094100 0.094100 -0.991100
vn 0.000000 0.327500 -0.944800
vn 0.094100 0.094100 -0.991100
vn 0.094100 -0.094100 -0.991100
vn 0.000000 0.000000 -1.000000
vn -0.094100 -0.094100 -0.991100
vn -0.327500 0.000000 -0.944800
vn -0.669500 0.669500 0.321900
vn -0.599800 0.733100 0.320400
vn 0.669500 -0.669500 0.321900
vn 0.733100 -0.599800 0.320400
vn -0.669500 -0.669500 0.321900
vn -0.733100 -0.599800 0.320400
vn 0.669500 0.669500 0.321900
vn 0.733100 0.599800 0.320400
vn 0.599800 0.733100 0.320400
vn -0.599800 -0.733100 0.320400
vn 0.599800 -0.733100 0.320400
vn -0.733100 0.599800 0.320400
vn 0.000000 -0.327500 -0.944800
vn 0.327500 0.000000 -0.944800
s 1
f 27/1/1 59/2/1 58/3/2
f 14/4/3 46/5/3 45/6/4
f 28/7/5 60/8/5 59/2/1
f 15/9/6 47/10/6 46/5/3
f 1/11/7 33/12/7 34/13/8
f 29/14/9 61/15/9 60/8/5
f 16/16/10 48/17/10 47/10/6
f 2/18/8 34/19/8 35/20/11
f 30/21/12 62/22/12 61/15/9
f 17/23/13 49/24/13 48/25/10
f 3/26/11 35/20/11 36/27/14
f 31/28/15 63/29/15 62/22/12
f 18/30/16 50/31/16 49/24/13
f 4/32/14 36/27/14 37/33/17
f 32/34/18 64/35/18 63/29/15
f 19/36/19 51/37/19 50/31/16
f 5/38/17 37/33/17 38/39/20
f 9/40/21 41/41/21 64/42/18
f 20/43/22 52/44/22 51/37/19
f 6/45/20 38/39/20 39/46/23
f 21/47/24 53/48/24 52/44/22
f 7/49/23 39/46/23 40/50/25
f 22/51/26 54/52/26 53/48/24
f 8/53/25 40/50/25 41/41/21
f 23/54/27 55/55/27 54/52/26
f 10/56/28 42/57/28 33/12/7
f 24/58/29 56/59/29 55/55/27
f 11/60/30 43/61/30 42/57/28
f 25/62/31 57/63/31 56/64/29
f 12/65/32 44/66/32 43/61/30
f 26/67/2 58/3/2 57/63/31
f 13/68/4 45/6/4 44/66/32
f 147/3/8 148/2/11 116/1/11
f 134/6/24 135/5/22 103/4/22
f 148/2/11 149/8/14 117/7/14
f 135/5/22 136/10/19 104/9/19
f 123/13/2 122/12/31 90/11/31
f 149/8/14 150/15/17 118/14/17
f 136/10/19 137/17/16 105/16/16
f 124/20/1 123/19/2 91/18/2
f 150/15/17 151/22/20 119/21/20
f 137/25/16 138/24/13 106/23/13
f 125/27/5 124/20/1 92/26/1
f 151/22/20 152/29/23 120/28/23
f 138/24/13 139/31/10 107/30/10
f 126/33/9 125/27/5 93/32/5
f 152/29/23 153/35/25 121/34/25
f 139/31/10 140/37/6 108/36/6
f 127/39/12 126/33/9 94/38/9
f 153/42/25 130/41/21 98/40/21
f 140/37/6 141/44/3 109/43/3
f 128/46/15 127/39/12 95/45/12
f 141/44/3 142/48/4 110/47/4
f 129/50/18 128/46/15 96/49/15
f 142/48/4 143/52/32 111/51/32
f 130/41/21 129/50/18 97/53/18
f 143/52/32 144/55/30 112/54/30
f 122/12/31 131/57/29 99/56/29
f 144/55/30 145/59/28 113/58/28
f 131/57/29 132/61/27 100/60/27
f 145/64/28 146/63/7 114/62/7
f 132/61/27 133/66/26 101/65/26
f 146/63/7 147/3/8 115/67/8
f 133/66/26 134/6/24 102/68/24
f 236/3/29 237/2/27 205/1/27
f 223/6/17 224/5/20 192/4/20
f 237/2/27 238/8/26 206/7/26
f 224/5/20 225/10/23 193/9/23
f 212/13/28 211/12/7 179/11/7
f 238/8/26 239/15/24 207/14/24
f 225/10/23 226/17/25 194/16/25
f 213/20/30 212/19/28 180/18/28
f 239/15/24 240/22/22 208/21/22
f 226/25/25 227/24/21 195/23/21
f 214/27/32 213/20/30 181/26/30
f 240/22/22 241/29/19 209/28/19
f 227/24/21 228/31/18 196/30/18
f 215/33/4 214/27/32 182/32/32
f 241/29/19 242/35/16 210/34/16
f 228/31/18 229/37/15 197/36/15
f 216/39/3 215/33/4 183/38/4
f 242/42/16 219/41/13 187/40/13
f 229/37/15 230/44/12 198/43/12
f 217/46/6 216/39/3 184/45/3
f 230/44/12 231/48/9 199/47/9
f 218/50/10 217/46/6 185/49/6
f 231/48/9 232/52/5 200/51/5
f 219/41/13 218/50/10 186/53/10
f 232/52/5 233/55/1 201/54/1
f 211/12/7 220/57/8 188/56/8
f 233/55/1 234/59/2 202/58/2
f 220/57/8 221/61/11 189/60/11
f 234/64/2 235/63/31 203/62/31
f 221/61/11 222/66/14 190/65/14
f 235/63/31 236/3/29 204/67/29
f 222/66/14 223/6/17 191/68/17
f 294/1/30 326/2/30 325/3/28
f 281/4/12 313/5/12 312/6/9
f 295/7/32 327/8/32 326/2/30
f 282/9/15 314/10/15 313/5/12
f 268/11/31 300/12/31 301/13/29
f 296/14/4 328/15/4 327/8/32
f 283/16/18 315/17/18 314/10/15
f 269/18/29 301/19/29 302/20/27
f 297/21/3 329/22/3 328/15/4
f 284/23/21 316/24/21 315/25/18
f 270/26/27 302/20/27 303/27/26
f 298/28/6 330/29/6 329/22/3
f 285/30/25 317/31/25 316/24/21
f 271/32/26 303/27/26 304/33/24
f 299/34/10 331/35/10 330/29/6
f 286/36/23 318/37/23 317/31/25
f 272/38/24 304/33/24 305/39/22
f 276/40/13 308/41/13 331/42/10
f 287/43/20 319/44/20 318/37/23
f 273/45/22 305/39/22 306/46/19
f 288/47/17 320/48/17 319/44/20
f 274/49/19 306/46/19 307/50/16
f 289/51/14 321/52/14 320/48/17
f 275/53/16 307/50/16 308/41/13
f 290/54/11 322/55/11 321/52/14
f 277/56/2 309/57/2 300/12/31
f 291/58/8 323/59/8 322/55/11
f 278/60/1 310/61/1 309/57/2
f 292/62/7 324/63/7 323/64/8
f 279/65/5 311/66/5 310/61/1
f 293/67/28 325/3/28 324/63/7
f 280/68/9 312/6/9 311/66/5
f 26/67/2 27/1/1 58/3/2
f 13/68/4 14/4/3 45/6/4
f 27/1/1 28/7/5 59/2/1
f 14/4/3 15/9/6 46/5/3
f 2/69/8 1/11/7 34/13/8
f 28/7/5 29/14/9 60/8/5
f 15/9/6 16/16/10 47/10/6
f 3/26/11 2/18/8 35/20/11
f 29/14/9 30/21/12 61/15/9
f 16/70/10 17/23/13 48/25/10
f 4/32/14 3/26/11 36/27/14
f 30/21/12 31/28/15 62/22/12
f 17/23/13 18/30/16 49/24/13
f 5/38/17 4/32/14 37/33/17
f 31/28/15 32/34/18 63/29/15
f 18/30/16 19/36/19 50/31/16
f 6/45/20 5/38/17 38/39/20
f 32/71/18 9/40/21 64/42/18
f 19/36/19 20/43/22 51/37/19
f 7/49/23 6/45/20 39/46/23
f 20/43/22 21/47/24 52/44/22
f 8/53/25 7/49/23 40/50/25
f 21/47/24 22/51/26 53/48/24
f 9/40/21 8/53/25 41/41/21
f 22/51/26 23/54/27 54/52/26
f 1/11/7 10/56/28 33/12/7
f 23/54/27 24/58/29 55/55/27
f 10/56/28 11/60/30 42/57/28
f 24/72/29 25/62/31 56/64/29
f 11/60/30 12/65/32 43/61/30
f 25/62/31 26/67/2 57/63/31
f 12/65/32 13/68/4 44/66/32
f 115/67/8 147/3/8 116/1/11
f 102/68/24 134/6/24 103/4/22
f 116/1/11 148/2/11 117/7/14
f 103/4/22 135/5/22 104/9/19
f 91/69/2 123/13/2 90/11/31
f 117/7/14 149/8/14 118/14/17
f 104/9/19 136/10/19 105/16/16
f 92/26/1 124/20/1 91/18/2
f 118/14/17 150/15/17 119/21/20
f 105/70/16 137/25/16 106/23/13
f 93/32/5 125/27/5 92/26/1
f 119/21/20 151/22/20 120/28/23
f 106/23/13 138/24/13 107/30/10
f 94/38/9 126/33/9 93/32/5
f 120/28/23 152/29/23 121/34/25
f 107/30/10 139/31/10 108/36/6
f 95/45/12 127/39/12 94/38/9
f 121/71/25 153/42/25 98/40/21
f 108/36/6 140/37/6 109/43/3
f 96/49/15 128/46/15 95/45/12
f 109/43/3 141/44/3 110/47/4
f 97/53/18 129/50/18 96/49/15
f 110/47/4 142/48/4 111/51/32
f 98/40/21 130/41/21 97/53/18
f 111/51/32 143/52/32 112/54/30
f 90/11/31 122/12/31 99/56/29
f 112/54/30 144/55/30 113/58/28
f 99/56/29 131/57/29 100/60/27
f 113/72/28 145/64/28 114/62/7
f 100/60/27 132/61/27 101/65/26
f 114/62/7 146/63/7 115/67/8
f 101/65/26 133/66/26 102/68/24
f 204/67/29 236/3/29 205/1/27
f 191/68/17 223/6/17 192/4/20
f 205/1/27 237/2/27 206/7/26
f 192/4/20 224/5/20 193/9/23
f 180/69/28 212/13/28 179/11/7
f 206/7/26 238/8/26 207/14/24
f 193/9/23 225/10/23 194/16/25
f 181/26/30 213/20/30 180/18/28
f 207/14/24 239/15/24 208/21/22
f 194/70/25 226/25/25 195/23/21
f 182/32/32 214/27/32 181/26/30
f 208/21/22 240/22/22 209/28/19
f 195/23/21 227/24/21 196/30/18
f 183/38/4 215/33/4 182/32/32
f 209/28/19 241/29/19 210/34/16
f 196/30/18 228/31/18 197/36/15
f 184/45/3 216/39/3 183/38/4
f 210/71/16 242/42/16 187/40/13
f 197/36/15 229/37/15 198/43/12
f 185/49/6 217/46/6 184/45/3
f 198/43/12 230/44/12 199/47/9
f 186/53/10 218/50/10 185/49/6
f 199/47/9 231/48/9 200/51/5
f 187/40/13 219/41/13 186/53/10
f 200/51/5 232/52/5 201/54/1
f 179/11/7 211/12/7 188/56/8
f 201/54/1 233/55/1 202/58/2
f 188/56/8 220/57/8 189/60/11
f 202/72/2 234/64/2 203/62/31
f 189/60/11 221/61/11 190/65/14
f 203/62/31 235/63/31 204/67/29
f 190/65/14 222/66/14 191/68/17
f 293/67/28 294/1/30 325/3/28
f 280/68/9 281/4/12 312/6/9
f 294/1/30 295/7/32 326/2/30
f 281/4/12 282/9/15 313/5/12
f 269/69/29 268/11/31 301/13/29
f 295/7/32 296/14/4 327/8/32
f 282/9/15 283/16/18 314/10/15
f 270/26/27 269/18/29 302/20/27
f 296/14/4 297/21/3 328/15/4
f 283/70/18 284/23/21 315/25/18
f 271/32/26 270/26/27 303/27/26
f 297/21/3 298/28/6 329/22/3
f 284/23/21 285/30/25 316/24/21
f 272/38/24 271/32/26 304/33/24
f 298/28/6 299/34/10 330/29/6
f 285/30/25 286/36/23 317/31/25
f 273/45/22 272/38/24 305/39/22
f 299/71/10 276/40/13 331/42/10
f 286/36/23 287/43/20 318/37/23
f 274/49/19 273/45/22 306/46/19
f 287/43/20 288/47/17 319/44/20
f 275/53/16 274/49/19 307/50/16
f 288/47/17 289/51/14 320/48/17
f 276/40/13 275/53/16 308/41/13
f 289/51/14 290/54/11 321/52/14
f 268/11/31 277/56/2 300/12/31
f 290/54/11 291/58/8 322/55/11
f 277/56/2 278/60/1 309/57/2
f 291/72/8 292/62/7 323/64/8
f 278/60/1 279/65/5 310/61/1
f 292/62/7 293/67/28 324/63/7
f 279/65/5 280/68/9 311/66/5
f 84/73/33 85/74/34 87/75/35
f 75/76/36 74/77/37 87/75/35
f 81/78/38 74/77/37 75/76/36
f 81/78/38 82/79/39 84/73/33
f 78/80/40 72/81/40 77/82/41
f 73/83/42 80/84/42 86/85/43
f 65/86/44 71/87/44 68/88/45
f 79/89/46 70/90/46 89/91/47
f 79/89/46 83/92/48 70/90/46
f 65/86/44 66/93/49 71/87/44
f 69/94/50 80/84/42 73/83/42
f 78/80/40 67/95/51 72/81/40
f 176/75/33 174/74/34 173/73/35
f 164/76/38 165/96/39 176/75/33
f 164/76/38 163/77/37 170/78/36
f 170/78/36 163/77/37 173/73/35
f 167/80/46 166/82/48 161/81/46
f 162/83/44 175/85/45 169/84/44
f 154/86/42 157/88/43 160/87/42
f 168/89/40 178/91/51 159/90/40
f 168/89/40 159/90/40 172/92/41
f 154/86/42 160/87/42 155/93/50
f 158/94/49 162/83/44 169/84/44
f 167/80/46 161/81/46 156/95/47
f 265/75/36 263/74/52 262/73/38
f 253/76/35 254/96/53 265/75/36
f 253/76/35 252/77/37 259/78/33
f 259/78/33 252/77/37 262/73/38
f 256/80/44 255/82/49 250/81/44
f 251/83/46 264/85/47 258/84/46
f 243/86/40 246/88/51 249/87/40
f 257/89/42 267/91/43 248/90/42
f 257/89/42 248/90/42 261/92/50
f 243/86/40 249/87/40 244/93/41
f 247/94/48 251/83/46 258/84/46
f 256/80/44 250/81/44 245/95/45
f 351/73/36 352/74/52 354/75/38
f 342/76/33 341/77/37 354/75/38
f 348/78/35 341/77/37 342/76/33
f 348/78/35 349/79/53 351/73/36
f 345/80/42 339/81/42 344/82/50
f 340/83/40 347/84/40 353/85/51
f 332/86/46 338/87/46 335/88/47
f 346/89/44 337/90/44 356/91/45
f 346/89/44 350/92/49 337/90/44
f 332/86/46 333/93/48 338/87/46
f 336/94/41 347/84/40 340/83/40
f 345/80/42 334/95/43 339/81/42
f 74/77/37 84/73/33 87/75/35
f 76/96/53 75/76/36 87/75/35
f 88/97/52 81/78/38 75/76/36
f 74/77/37 81/78/38 84/73/33
f 163/77/37 176/75/33 173/73/35
f 163/77/37 164/76/38 176/75/33
f 177/97/52 164/76/38 170/78/36
f 171/79/53 170/78/36 173/73/35
f 252/77/37 265/75/36 262/73/38
f 252/77/37 253/76/35 265/75/36
f 266/97/34 253/76/35 259/78/33
f 260/79/39 259/78/33 262/73/38
f 341/77/37 351/73/36 354/75/38
f 343/96/39 342/76/33 354/75/38
f 355/97/34 348/78/35 342/76/33
f 341/77/37 348/78/35 351/73/36
